<?xml version="1.0" encoding="UTF-8" standalone="no"?>
<!-- Created with Inkscape (http://www.inkscape.org/) -->

<svg
   xmlns:dc="http://purl.org/dc/elements/1.1/"
   xmlns:cc="http://creativecommons.org/ns#"
   xmlns:rdf="http://www.w3.org/1999/02/22-rdf-syntax-ns#"
   xmlns:svg="http://www.w3.org/2000/svg"
   xmlns="http://www.w3.org/2000/svg"
   xmlns:sodipodi="http://sodipodi.sourceforge.net/DTD/sodipodi-0.dtd"
   xmlns:inkscape="http://www.inkscape.org/namespaces/inkscape"
   width="320mm"
   height="320mm"
   viewBox="0 0 320 320"
   version="1.1"
   id="svg177"
   inkscape:version="0.92.4 (5da689c313, 2019-01-14)"
   sodipodi:docname="logo_sharp.svg">
  <defs
     id="defs171" />
  <sodipodi:namedview
     id="base"
     pagecolor="#ffffff"
     bordercolor="#666666"
     borderopacity="1.0"
     inkscape:pageopacity="0.0"
     inkscape:pageshadow="2"
     inkscape:zoom="0.7"
     inkscape:cx="380.18008"
     inkscape:cy="658.93882"
     inkscape:document-units="mm"
     inkscape:current-layer="layer1"
     showgrid="false"
     inkscape:window-width="1920"
     inkscape:window-height="1009"
     inkscape:window-x="-8"
     inkscape:window-y="-8"
     inkscape:window-maximized="1"
     fit-margin-top="0"
     fit-margin-left="0"
     fit-margin-right="0"
     fit-margin-bottom="0" />
  <metadata
     id="metadata174">
    <rdf:RDF>
      <cc:Work
         rdf:about="">
        <dc:format>image/svg+xml</dc:format>
        <dc:type
           rdf:resource="http://purl.org/dc/dcmitype/StillImage" />
        <dc:title></dc:title>
      </cc:Work>
    </rdf:RDF>
  </metadata>
  <g
     inkscape:label="Layer 1"
     inkscape:groupmode="layer"
     id="layer1"
     transform="translate(-4.8598725,10.667129)">
    <path
       id="path3892"
       d="m 86.038064,167.33337 h 27.927876 l 2.77778,-4.51785 H 93.774843 L 145.49408,98.335986 h 31.69681 l -18.45291,64.460594 h -22.36892 l -2.31414,4.32806 h 23.36482 l -28.03515,103.79356 81.32347,-98.17292 h -28.88312 l -1.6932,4.246 22.16599,0.0219 -66.21866,81.06282 34.0193,-120.82524 h 65.02585 l 0.51944,5.63329 7.92512,-9.42392 h -71.8048 C 181.18822,96.859375 191.3878,63.823249 199.6862,26.965192 160.10182,73.94822 124.59054,119.46477 86.038064,167.33337 Z M 194.20054,38.394138 178.32099,94.004975 h -29.15501 z"
       style="fill:#00a9ff;fill-opacity:1;fill-rule:nonzero;stroke:#00a9ff;stroke-width:3.88081288;stroke-linecap:butt;stroke-linejoin:miter;stroke-miterlimit:4.80000019;stroke-dasharray:none;stroke-opacity:1"
       inkscape:connector-curvature="0"
       sodipodi:nodetypes="ccccccccccccccccccccccccccc" />
    <path
       style="fill:none;fill-opacity:1;fill-rule:nonzero;stroke:#00a9ff;stroke-width:14.37572765;stroke-miterlimit:4;stroke-dasharray:none;stroke-opacity:1;stroke-linecap:square"
       id="path18"
       sodipodi:type="arc"
       sodipodi:cx="164.85988"
       sodipodi:cy="149.33289"
       sodipodi:rx="152.81212"
       sodipodi:ry="152.81213"
       sodipodi:start="0"
       sodipodi:end="6.2785602"
       sodipodi:open="true"
       d="M 317.672,149.33289 A 152.81212,152.81213 0 0 1 165.03657,302.14492 152.81212,152.81213 0 0 1 12.048169,149.68627 152.81212,152.81213 0 0 1 164.3298,-3.4783287 152.81212,152.81213 0 0 1 317.67036,148.62612" />
  </g>
</svg>
